# xmcd
#
# Track frame offsets: 
#        150
#        18141
#        40048
#        57828
#        76278
#        95763
#        115421
#        133713
#        152859
#        179189
#        201681
#        224886
#        261733
#
# Disc length: 3928 seconds
#
# Revision: 1
# Processed by: cddbd v1.5.2PL0 Copyright (c) Steve Scherf et al.
# Submitted via: ExactAudioCopy v0.95a5
#
DISCID=cf0f560d
DTITLE=Beauty Of Gemina - At The End Of The Sea
DYEAR=2010
DGENRE=Darkwave
TTITLE0=Dark Rain
TTITLE1=Obscura
TTITLE2=Rumours
TTITLE3=Kings Men Come
TTITLE4=Sacrificed To The Goods
TTITLE5=End Of All
TTITLE6=Counting Tears
TTITLE7=In Silence
TTITLE8=A Fortune Tellers Dream
TTITLE9=Black Cat Nights
TTITLE10=Narcotica
TTITLE11=Endless Sleep
TTITLE12=La Mer Rythme Eternel
EXTD=
EXTT0=
EXTT1=
EXTT2=
EXTT3=
EXTT4=
EXTT5=
EXTT6=
EXTT7=
EXTT8=
EXTT9=
EXTT10=
EXTT11=
EXTT12=
PLAYORDER=
